<?xml version="1.0" encoding="UTF-8"?>
<svg id="Layer_1" xmlns="http://www.w3.org/2000/svg" version="1.1" viewBox="0 0 283.46 283.46">
  <!-- Generator: Adobe Illustrator 30.1.0, SVG Export Plug-In . SVG Version: 2.1.1 Build 136)  -->
  <defs>
    <style>
      .st0 {
        fill: #050606;
      }

      .st1 {
        fill: #231f20;
      }

      .st2 {
        fill: none;
        stroke: #231f20;
        stroke-miterlimit: 10;
        stroke-width: 16px;
      }
    </style>
  </defs>
  <g>
    <path class="st0" d="M88.54,184.05h-48.68s-8.03,18.6-8.03,18.6c-2.61,6.04-10.47,9.13-16.6,5.61-4.3-2.47-7.42-8.36-5.11-13.59l39.86-89.86c4.67-10.53,19.16-10.76,25.18-5.11,2.54,2.38,3.84,4.88,5.28,8.15l38.21,86.44c1.7,3.86.6,7.51-1.65,10.77-2.58,3.74-7.06,5.28-11.76,4.46-3.89-.67-7.36-3.71-9.1-7.77l-7.61-17.7ZM79.33,162.09l-15.2-35.95-15.09,35.95h30.29Z"/>
    <path class="st0" d="M158.51,210.27c-17.24.56-31.24-7.93-31.29-26.69-.05-19.21,15.95-26.51,33.05-26.63l2.83-.02c6.58-.05,12.95,1.08,19.09,3.41.1-7.16-2.26-13.08-9.3-15.41-7.13-2.36-18.58-1.05-25.84,1.17-5.22,1.6-10.71-1-12.58-5.97-1.8-4.79.37-10.49,5.46-12.6,6.21-2.58,12.68-3.76,19.47-4.4,17.76-1.67,38.5,1.78,44.07,21.49,1,3.53,2,7.03,2.01,10.87l.06,43.08c0,5.18-4.05,9.17-8.1,10.53-5.11,1.71-10.11-.07-13.44-3.85-1.43-1.62-1.47-3.29-2.06-5.61-6.11,7.19-14.53,10.33-23.43,10.62ZM177.73,188.88c5.3-4.94,4.63-7.76,4.53-14.3-6.61-3.44-20.04-4.23-26.15-.71-2.92,1.68-4.63,4.35-5.19,7.15-.66,3.31.22,6.59,2.51,8.92,5.59,5.69,18.85,4.03,24.3-1.05Z"/>
    <path class="st2" d="M228.48,226.37"/>
    <path class="st2" d="M228.48,85.47"/>
  </g>
  <path class="st1" d="M271.39,92.54v-14h-64.72v14h20.96c2.43,0,4.4,1.97,4.4,4.4v117.98c0,2.43-1.97,4.4-4.4,4.4h-20.96v14h64.72v-14h-20.96c-2.43,0-4.4-1.97-4.4-4.4v-117.98c0-2.43,1.97-4.4,4.4-4.4h20.96Z"/>
</svg>
