<?xml version="1.0" encoding="UTF-8"?>
<svg id="Layer_1" xmlns="http://www.w3.org/2000/svg" version="1.1" viewBox="0 0 283.46 283.46">
  <!-- Generator: Adobe Illustrator 30.1.0, SVG Export Plug-In . SVG Version: 2.1.1 Build 136)  -->
  <defs>
    <style>
      .st0 {
        fill: #050606;
      }
    </style>
  </defs>
  <g>
    <path class="st0" d="M116.13,143.57H50.2l-10.88,25.19c-3.54,8.18-14.18,12.37-22.48,7.6-5.82-3.35-10.05-11.32-6.92-18.41L63.91,36.25c6.33-14.26,25.95-14.57,34.1-6.92,3.44,3.22,5.2,6.61,7.15,11.04l51.75,117.08c2.3,5.23.81,10.17-2.23,14.59-3.49,5.07-9.56,7.15-15.93,6.04-5.27-.91-9.97-5.03-12.33-10.52l-10.31-23.97h.01ZM103.66,113.83l-20.59-48.69-20.44,48.69h41.03Z"/>
    <path class="st0" d="M210.9,179.09c-23.35.76-42.31-10.74-42.38-36.15-.07-26.02,21.6-35.91,44.76-36.07l3.83-.03c8.91-.07,17.54,1.46,25.86,4.62.14-9.7-3.06-17.72-12.6-20.87-9.66-3.2-25.17-1.42-35,1.58-7.07,2.17-14.51-1.35-17.04-8.09-2.44-6.49.5-14.21,7.4-17.07,8.41-3.49,17.17-5.09,26.37-5.96,24.05-2.26,52.15,2.41,59.69,29.11,1.35,4.78,2.71,9.52,2.72,14.72l.08,58.35c0,7.02-5.49,12.42-10.97,14.26-6.92,2.32-13.69-.09-18.2-5.21-1.94-2.19-1.99-4.46-2.79-7.6-8.28,9.74-19.68,13.99-31.73,14.38h0ZM236.94,150.11c7.18-6.69,6.27-10.51,6.14-19.37-8.95-4.66-27.14-5.73-35.42-.96-3.95,2.28-6.27,5.89-7.03,9.68-.89,4.48.3,8.93,3.4,12.08,7.57,7.71,25.53,5.46,32.91-1.42h0Z"/>
  </g>
  <path class="st0" d="M250.27,259.12H33.19c-15.44,0-27.96-12.52-27.96-27.96v-13.04h273v13.04c0,15.44-12.52,27.96-27.96,27.96Z"/>
</svg>