<?xml version="1.0" encoding="UTF-8"?>
<svg id="Layer_1" xmlns="http://www.w3.org/2000/svg" version="1.1" viewBox="0 0 283.46 283.46">
  <!-- Generator: Adobe Illustrator 30.1.0, SVG Export Plug-In . SVG Version: 2.1.1 Build 136)  -->
  <defs>
    <style>
      .st0 {
        fill: #010101;
      }
    </style>
  </defs>
  <path class="st0" d="M174.41,75.29h-65.35c-18.62,0-33.77,15.15-33.77,33.77v65.35c0,18.62,15.15,33.77,33.77,33.77h65.35c18.62,0,33.77-15.15,33.77-33.77v-65.35c0-18.62-15.15-33.77-33.77-33.77ZM142.41,182.04c-22.23,0-40.31-18.08-40.31-40.31s18.08-40.31,40.31-40.31,40.31,18.08,40.31,40.31-18.08,40.31-40.31,40.31ZM185.07,108.3c-5.3,0-9.6-4.3-9.6-9.6s4.3-9.6,9.6-9.6,9.6,4.3,9.6,9.6c0,5.3-4.3,9.6-9.6,9.6Z"/>
  <path class="st0" d="M142.41,115.91c-14.24,0-25.82,11.58-25.82,25.82s11.58,25.82,25.82,25.82,25.82-11.58,25.82-25.82-11.58-25.82-25.82-25.82Z"/>
  <path class="st0" d="M141.73,11.5C69.81,11.5,11.5,69.81,11.5,141.73s58.31,130.23,130.23,130.23,130.23-58.31,130.23-130.23S213.66,11.5,141.73,11.5ZM223.58,174.41c0,27.11-22.06,49.17-49.17,49.17h-65.35c-27.11,0-49.17-22.06-49.17-49.17v-65.35c0-27.11,22.06-49.17,49.17-49.17h65.35c27.11,0,49.17,22.06,49.17,49.17v65.35Z"/>
</svg>