<?xml version="1.0" encoding="UTF-8"?>
<svg id="Layer_1" xmlns="http://www.w3.org/2000/svg" version="1.1" viewBox="0 0 283.46 283.46">
  <!-- Generator: Adobe Illustrator 30.1.0, SVG Export Plug-In . SVG Version: 2.1.1 Build 136)  -->
  <defs>
    <style>
      .st0 {
        fill: #010101;
      }
    </style>
  </defs>
  <path class="st0" d="M141.73,11.5C69.81,11.5,11.5,69.81,11.5,141.73s58.31,130.23,130.23,130.23,130.23-58.31,130.23-130.23S213.66,11.5,141.73,11.5ZM217.4,78.58c-.46,6.37-4.09,28.65-7.73,52.76-5.46,34.11-11.37,71.4-11.37,71.4,0,0-.91,10.46-8.64,12.28-7.73,1.82-20.46-6.37-22.74-8.18-1.82-1.37-34.11-21.83-45.93-31.84-3.18-2.73-6.82-8.18.46-14.55,16.37-15.01,35.93-33.65,47.75-45.48,5.46-5.46,10.92-18.19-11.83-2.73-32.29,22.29-64.13,43.21-64.13,43.21,0,0-7.28,4.55-20.92.46-13.65-4.09-29.56-9.55-29.56-9.55,0,0-10.92-6.82,7.73-14.1,0,0,78.68-32.29,105.97-43.66,10.46-4.55,45.93-19.1,45.93-19.1,0,0,16.37-6.37,15.01,9.09Z"/>
</svg>