<?xml version="1.0" encoding="UTF-8"?>
<svg id="Layer_1" xmlns="http://www.w3.org/2000/svg" version="1.1" viewBox="0 0 283.46 283.46">
  <!-- Generator: Adobe Illustrator 30.1.0, SVG Export Plug-In . SVG Version: 2.1.1 Build 136)  -->
  <defs>
    <style>
      .st0 {
        fill: #010101;
      }
    </style>
  </defs>
  <path class="st0" d="M141.73,11.5C69.81,11.5,11.5,69.81,11.5,141.73s58.31,130.23,130.23,130.23,130.23-58.31,130.23-130.23S213.66,11.5,141.73,11.5ZM217.41,124.85c-1.45.14-2.9.21-4.35.22-15.93,0-30.79-8.03-39.52-21.36v72.73c0,29.69-24.07,53.76-53.76,53.76s-53.76-24.07-53.76-53.76,24.07-53.76,53.76-53.76c1.12,0,2.22.1,3.33.17v26.49c-1.1-.13-2.19-.34-3.33-.34-15.15,0-27.43,12.28-27.43,27.44s12.28,27.43,27.43,27.43,28.54-11.94,28.54-27.1l.26-123.53h25.34c2.39,22.73,20.72,40.48,43.5,42.14v29.45h-.02Z"/>
</svg>